/* XPM */
 static char *close_active[] = {
/* columns rows colors chars-per-pixel */
"24 24 38 1",
" 	c #000000",
"!	c #050301",
"#	c #7d4d1e",
"$	c #c2772f",
"%	c #e48c38",
"&	c #c1762f",
"'	c #e38b37",
"(	c #c3772f",
")	c #160d05",
"*	c #7b4b1e",
",	c #ed913a",
"-	c #e08a37",
".	c #1f1f1f",
"/	c #794a1e",
"0	c #bf752e",
"1	c #6b421a",
"2	c #583615",
"3	c #4f3113",
"4	c #5d3917",
"5	c #784a1d",
"6	c #7e4d1f",
"7	c #e08937",
"8	c #130c05",
"9	c #4d2f13",
":	c #593616",
";	c #ee923a",
"<	c #5b3816",
"=	c #4f3013",
">	c #503114",
"@	c #150d05",
"[	c #6d431a",
"]	c #613c18",
"^	c #030201",
"_	c #76481d",
"{	c #eb9039",
"|	c #73461c",
"}	c #e18a37",
"~	c #5f3a17",

/* pixels */
"........................",
"                        ",
"                        ",
"                        ",
"                        ",
"        @#$%%&*@        ",
"       =-;;;;;;->       ",
"      =,;;;;;;;;,>      ",
"     @-;;';;;;';;')     ",
"     #;;;!~{{]^;;;/     ",
"     (;;;_ :< [;;;&     ",
"     };;;;|  1;;;;-     ",
"     -;;;,2  3{;;;'     ",
"     $;;;4 55 <;;;&     ",
"     *;;;@6;;6@;;;5     ",
"     @-;;;;;;;;;;78     ",
"      >,;;;;;;;;,9      ",
"       >';;;;;;79       ",
"        )/0}}058        ",
"                        ",
"                        ",
"                        ",
"                        ",
"                        "
};
