/* XPM */
 static char *close_active[] = {
/* columns rows colors chars-per-pixel */
"24 24 15 1",
" 	c #000000",
"#	c #2f2f2f",
"$	c #303030",
"%	c #5d5d5d",
"&	c #626262",
"*	c #747474",
"+	c #171717",
"-	c #ffffff",
".	c #000000",
"=	c #7c7c7c",
"@	c #1a1a1a",
"O	c #0b0b0b",
"X	c #040404",
"o	c #0a0a0a",
",  c #1f1f1f"
/* pixels */
",,,,,,,,,,,,,,,,,,,,,,,,",
"........................",
"........................",
"........................",
".........X..............",
"........o+o  O+o........",
".......+.$%*=%$.+.......",
"......+X&======&X+......",
".....o.&========&.X.....",
".....+$==========$+.....",
".....o&==========%o.....",
"..... *==------=== .....",
"..... *==------==* .....",
".....o&==========%o.....",
".....+$==========$+.....",
".....o.&========&.o.....",
"......+X&======&X+......",
".......+.$%**%$.+.......",
"........o+o  o+o........",
"..........X...X.........",
"........................",
"........................",
"........................",
"........................"
};
