/* XPM */
static char *hide_prelight[] = {
/* columns rows colors chars-per-pixel */
"24 24 11 1 ",
"  c #000000",
". c #000000",
"X c #000000",
"o c #0b0b0b",
"O c #161616",
"+ c #333333",
"@ c #343434",
"# c #3b3b3b",
"$ c #3c3c3c",
"% c gray77",
", c #1f1f1f",
/* pixels */
",,,,,,,,,,,,,,,,,,,,,,,,",
"XXXXXXXXXXXXXXXXXXXXXXXX",
"XXXXXXXXXXXXXXXXXXXXXXXX",
"XXXXXXXXXXXXXXXXXXXXXXXX",
"XXXXXXXXXXXXXXXXXXXXXXXX",
"XXXXXXXXXoX  XoXXXXXXXXX",
"XXXXXXXo.O@##@O.oXXXXXXX",
"XXXXXXo.@#$$$$#+.oXXXXXX",
"XXXXXo.@$$$$$$$$@.oXXXXX",
"XXXXXoO$$$$$$$$$#OoXXXXX",
"XXXXX.+$$$$$$$$$$+.XXXXX",
"XXXXX.#$$%%%%%%$## XXXXX",
"XXXXX.##$%%%%%%$$# XXXXX",
"XXXXX.+#$$$$$$$$#+XXXXXX",
"XXXXXoO$$$$$$$$$#OoXXXXX",
"XXXXXo.@$$$$$$$$+.XXXXXX",
"XXXXXXo.@$$#$$#@.oXXXXXX",
"XXXXXXXo O+##+O.ooXXXXXX",
"XXXXXXXXXoX  XXXXXXXXXXX",
"XXXXXXXXXXXXXXXXXXXXXXXX",
"XXXXXXXXXXXXXXXXXXXXXXXX",
"XXXXXXXXXXXXXXXXXXXXXXXX",
"XXXXXXXXXXXXXXXXXXXXXXXX",
"XXXXXXXXXXXXXXXXXXXXXXXX"
};
