/* XPM */
static char *hide_inactive[] = {
/* columns rows colors chars-per-pixel */
"24 24 3 1 ",
"  c #000000",
". c #1f1f1f",
"X c #333333",
/* pixels */
"........................",
"                        ",
"                        ",
"                        ",
"                        ",
"                        ",
"                        ",
"                        ",
"                        ",
"                        ",
"                        ",
"         XXXXXX         ",
"         XXXXXX         ",
"                        ",
"                        ",
"                        ",
"                        ",
"                        ",
"                        ",
"                        ",
"                        ",
"                        ",
"                        ",
"                        "
};
