/* XPM */
static char *maximize_prelight[] = {
/* columns rows colors chars-per-pixel */
"24 24 16 1 ",
"  c #000000",
". c #000000",
"X c #000000",
"o c #0b0b0b",
"O c #161616",
"+ c #333333",
"@ c #343434",
"# c #3b3b3b",
"$ c #3c3c3c",
"% c #707070",
", c #1f1f1f",
"& c #9A9A9A",
"* c #9D9D9D",
"= c #A0A0A0",
"- c #AEAEAE",
"; c gray77",
/* pixels */
",,,,,,,,,,,,,,,,,,,,,,,,",
"XXXXXXXXXXXXXXXXXXXXXXXX",
"XXXXXXXXXXXXXXXXXXXXXXXX",
"XXXXXXXXXXXXXXXXXXXXXXXX",
"XXXXXXXXXXXXXXXXXXXXXXXX",
"XXXXXXXXXoX  XoXXXXXXXXX",
"XXXXXXXo.O@##@O.oXXXXXXX",
"XXXXXXo.@#$$$$#+.oXXXXXX",
"XXXXXo.@$$$$$$$$@.oXXXXX",
"XXXXXoO$$$%*;;-$#OoXXXXX",
"XXXXX.+$$$$%*;;$$+.XXXXX",
"XXXXX.##$=%$$*;$## XXXXX",
"XXXXX ##$;=%$$*$$# XXXXX",
"XXXXo.+#$;;*$$$$#+XXXXXX",
"XXXXXoO$$-;;*%$$#OoXXXXX",
"XXXXooX@$$$$$$$$+.XXXXXX",
"XXXXXXo.@$$#$$#@.oXXXXXX",
"XXXXXXXo O+##+O.ooXXXXXX",
"XXXXXXXXXoX  XXXXXXXXXXX",
"XXXXXXXXXXXXXXXXXXXXXXXX",
"XXXXXXXXXXXXXXXXXXXXXXXX",
"XXXXXXXXXXXXXXXXXXXXXXXX",
"XXXXXXXXXXXXXXXXXXXXXXXX",
"XXXXXXXXXXXXXXXXXXXXXXXX"
};
