/* XPM */
 static char *close_active[] = {
/* columns rows colors chars-per-pixel */
"24 24 8 1",
" 	c #000000",
"#	c #333333",
"+	c #242424",
".	c #010101",
"@	c #292929",
"O	c #232323",
"X	c #1f1f1f",
"o	c #212121",

/* pixels */
"XXXXXXXXXXXXXXXXXXXXXXXX",
"                        ",
"                        ",
"                        ",
"                        ",
"                        ",
"                        ",
"                        ",
"          ...           ",
"          .O##@         ",
"         ...O##         ",
"        .+...o#         ",
"        .#+. .o         ",
"        .##O...         ",
"        .@##O..         ",
"        ..  .           ",
"                        ",
"                        ",
"                        ",
"                        ",
"                        ",
"                        ",
"                        ",
"                        "
};
