/* XPM */
 static char *close_active[] = {
/* columns rows colors chars-per-pixel */
"24 24 12 1",
",  c #1f1f1f"
" 	c #000000",
"#	c #272727",
"$	c #2b2b2b",
"%	c #2f2f2f",
"&	c #333333",
"+	c #202020",
".	c #070707",
"@	c #232323",
"O	c #1b1b1b",
"X	c #0f0f0f",
"o	c #161616",

/* pixels */
",,,,,,,,,,,,,,,,,,,,,,,,"
"                        ",
"                        ",
"                        ",
"                        ",
"                        ",
"                        ",
"                        ",
"                        ",
"                        ",
"        $#X  X#$        ",
"        +&%OO%&+        ",
"         o$&&$o         ",
"          .@@.          ",
"                        ",
"                        ",
"                        ",
"                        ",
"                        ",
"                        ",
"                        ",
"                        ",
"                        ",
"                        "
};
