/* XPM */
 static char *close_active[] = {
/* columns rows colors chars-per-pixel */
"24 24 22 1",
" 	c #000000",
"#	c #5e5e5e",
"$	c #636363",
"%	c #757575",
"&	c #7c7c7c",
"*	c #7e7e7e",
"+	c #171717",
",	c #dedede",
"-	c #a0a0a0",
".	c #000000",
"1	c #fdfdfd",
"2	c #ffffff",
":	c #bcbcbc",
";	c #afafaf",
"<	c #f4f4f4",
"=	c #898989",
">	c #dadada",
"@	c #303030",
"O	c #0b0b0b",
"X	c #040404",
"o	c #0a0a0a",
"j  c #1f1f1f",

/* pixels */
"jjjjjjjjjjjjjjjjjjjjjjjj"
"........................",
"........................",
"........................",
".........X..............",
"........o+o  O+o........",
".......+.@#%&#@.+.......",
"......+X$&&&&&&$X+......",
".....o.$&&&&&&&&$.o.....",
".....+@&&&&&&&&&&@+.....",
".....o$&:2:&&:2:&$O.....",
"..... %&;22,,22;&% .....",
"..... %&&-<22<-&&% .....",
".....o$&&&=,,=&&&#O.....",
".....+@%&&&&&&&&&@+.....",
".....o %&&&&&&&&$.o.....",
"......+X$&&&&&&$X+......",
".......+.@#%%#@.+.......",
"........o+o  o+o........",
"..........X.............",
"........................",
"........................",
"........................",
"........................"
};
