/* XPM */
 static char *close_active[] = {
/* columns rows colors chars-per-pixel */
"24 24 21 1",
" 	c #000000",
"!	c #767676",
"#	c #414141",
"$	c #656565",
"%	c #777777",
"&	c #404040",
"'	c #ffffff",
")	c #c0c0c0",
"*	c #2a2a2a",
",	c #fbfbfb",
"-	c #7c7c7c",
".	c #0a0a0a",
";	c #7b7b7b",
"=	c #747474",
">	c #c2c2c2",
"@	c #0b0b0b",
"]	c #282828",
"^	c #636363",
"{	c #666666",
"~	c #3f3f3f",
"1  c #1f1f1f",

/* pixels */
"111111111111111111111111",
"                        ",
"                        ",
"                        ",
"                        ",
"        @#$%%$&@        ",
"       *=------=*       ",
"      *;--------;*      ",
"     @=->,'''',)-!@     ",
"     #--,'''''-,--~     ",
"     {--''''''''--$     ",
"     !--''----''--=     ",
"     =--''----''--!     ",
"     $--''----''--$     ",
"     &--''''''''--~     ",
"     @=-''''''''-=.     ",
"      *;--------;]      ",
"       *!------=]       ",
"        @~^!!^~.        ",
"                        ",
"                        ",
"                        ",
"                        ",
"                        "
};
