/* XPM */
 static char *close_active[] = {
/* columns rows colors chars-per-pixel */
"24 24 22 1",
" 	c #000000",
"!	c #707070",
"#	c #393939",
"$	c #5e5e5e",
"%	c #717171",
"&	c #383838",
"'	c #ffffff",
")	c #bebebe",
"*	c #212121",
",	c #fbfbfb",
"-	c #777777",
".	c #000000",
"/	c #5d5d5d",
";	c #757575",
"=	c #6f6f6f",
">	c #bfbfbf",
"@	c #010101",
"]	c #bbbbbb",
"^	c #202020",
"{	c #606060",
"~	c #373737",
"1  c #1f1f1f",

/* pixels */
"111111111111111111111111",
"                        ",
"                        ",
"                        ",
"                        ",
"        @#$%%$&@        ",
"       *=------=*       ",
"      *;--------;*      ",
"     @=->,'''',)-!@     ",
"     #--,'''''-,--~     ",
"     {--''''''''--$     ",
"     !-----]>-----=     ",
"     =----]''>----!     ",
"     $---]''''>---$     ",
"     &-----''-----~     ",
"     @=----''----=.     ",
"      *;--------;^      ",
"       *!------=^       ",
"        @~/!!/~.        ",
"                        ",
"                        ",
"                        ",
"                        ",
"                        "
};
