/* XPM */
static char *shade_toggled_prelight[] = {
/* columns rows colors chars-per-pixel */
"24 24 25 1",
". c #1f1f1f", // done
"  c #000000",
"@ c #010101",
"# c #020202", // done
"$ c #000000",
"% c #000000",
"& c #030303", // done
"* c #000000",
"= c #353535", // done
"- c #3b3b3b", // done
"; c #262626", // done
"> c #000000",
", c #363636", // done
"' c #3c3c3c", // done
") c #000000",
"! c #8C8C8C",
"~ c #C1C1C1",
"{ c #C4C4C4",
"] c #8B8B8B",
"^ c #343434",
"/ c #333333",
"( c #3a3a3a",
"_ c #000000",
": c #000000",
"< c #010101", // done
/* pixels */
"........................",
"                        ",
"                        ",
"                        ",
"                        ",
"        @#$%%$#@        ",
"       &*.=--=;*&       ",
"      &>,''''''=)&      ",
"     @*,!~{{{{~]=*#     ",
"     #.'~{{{{{'~';@     ",
"     $^'{{{{{{{{'/$     ",
"     %('{{''''{{'(_     ",
"     _('{{''''{{'(_     ",
"     $^'{{''''{{'/$     ",
"     #;'{{{{{{{{';@     ",
"     @*={{{{{{{{=*:     ",
"      &>=''''''=)#      ",
"       &*;/((^;*#       ",
"        #@<%%<@:        ",
"                        ",
"                        ",
"                        ",
"                        ",
"                        "
};
