/* XPM */
 static char *close_active[] = {
/* columns rows colors chars-per-pixel */
"24 24 23 1",
" 	c #000000",
"!	c #2f2f2f",
"#	c #262626",
"$	c #040404",
"%	c #050505",
"&	c #222222",
"'	c #2a2a2a",
"(	c #111111",
")	c #0d0d0d",
"*	c #292929",
",	c #0c0c0c",
"-	c #101010",
".	c #1f1f1f",
"/	c #191919",
";	c #2e2e2e",
"=	c #2c2c2c",
">	c #333333",
"@	c #090909",
"]	c #1a1a1a",
"^	c #0f0f0f",
"_	c #1e1e1e",
"{	c #232323",
"~	c #2b2b2b",

/* pixels */
"........................",
"                        ",
"                        ",
"                        ",
"                        ",
"                        ",
"                        ",
"       @#$  %&          ",
"       $*=$-;>          ",
"        ,'=)!>          ",
"        !)'~)!          ",
"        >!,'=)~{]^%     ",
"        >>!)'~$         ",
"        >>>!)''$        ",
"        ~/@(=)*'$       ",
"            %_$#@       ",
"                        ",
"                        ",
"                        ",
"                        ",
"                        ",
"                        ",
"                        ",
"                        "
};
