/* XPM */
static char *stick_active[] = {
/* columns rows colors chars-per-pixel */
"24 24 14 1",
". c #1f1f1f",
"  c #000000",
"@ c #4b4b4b",
"# c #5e5e5e",
"$ c #373737",
"% c #141414",
"& c #252525",
"* c #676767",
"= c #707070",
"- c #666666",
"; c #4d4d4d",
"> c #393939",
", c #212121",
"' c #0c0c0c",
/* pixels */
"........................",
"                        ",
"                        ",
"                        ",
"                        ",
"                        ",
"                        ",
"            .@          ",
"        #$%&*=          ",
"        ======          ",
"        ======          ",
"        ======-;>,'     ",
"        ======          ",
"        ======          ",
"        #$%&*=          ",
"            .@          ",
"                        ",
"                        ",
"                        ",
"                        ",
"                        ",
"                        ",
"                        ",
"                        "
};
