/* XPM */
static char * top_right_active_xpm[] = {
"5 24 3 1",
" 	c None",
".	c #1f1f1f",
"+	c #000000",
".... ",
"++++.",
"+++++",
"+++++",
"+++++",
"+++++",
"+++++",
"+++++",
"+++++",
"+++++",
"+++++",
"+++++",
"+++++",
"+++++",
"+++++",
"+++++",
"+++++",
"+++++",
"+++++",
"+++++",
"+++++",
"+++++",
"+++++",
"+++++"};
